<svg id="Capa_1" enable-background="new 0 0 512 512" height="512" viewBox="0 0 512 512" width="512" xmlns="http://www.w3.org/2000/svg"><g><g><g><path d="m489.102 261.331c-2.019 1.997-4.19 3.756-6.492 5.298.391 2.356.608 4.777.608 7.241v105.39c0 7.914-2.128 15.329-5.841 21.712 3.713 6.394 5.841 13.809 5.841 21.712 0 23.949-19.476 43.424-43.424 43.424-17.381 0-32.406-10.27-39.332-25.056-12.235 11.203-28.193 17.37-45.194 17.37h-1.314c-17.619 0-34.142-6.611-46.54-18.618-.391-.38-.771-.782-1.151-1.184-13.516 12.3-31.472 19.802-51.143 19.802-16.458 0-31.711-5.276-44.174-14.2-7.947 8.718-19.389 14.2-32.069 14.2h-.033c-11.681-.033-22.57-4.57-30.755-12.799-8.185-8.218-12.669-19.129-12.637-30.734l.141-59.111-37.986-58.167c-4.788-7.339-7.057-15.611-7.046-23.786-23.167-.879-41.753-19.997-41.753-43.381v-97.944c-21.786-2.312-38.808-20.799-38.808-43.185 0-23.949 19.476-43.424 43.424-43.424h77.936c23.938 0 43.424 19.476 43.424 43.424 0 6.373-1.39 12.441-3.865 17.891 3.626 4.972 6.221 10.737 7.469 16.979 10.465 2.746 19.704 8.012 27.249 15.589.673.684 1.335 1.4 1.976 2.106 12.713-10.834 29.171-17.402 47.148-17.402 3.344 0 6.687.228 9.999.694 5.873-2.953 12.463-4.603 19.324-4.603 8.099 0 15.676 2.236 22.168 6.112 6.286-3.55 13.538-5.58 21.256-5.58 4.201 0 8.327.608 12.278 1.77 4.006-.75 8.088-1.14 12.202-1.14 7.741 0 15.199 1.281 22.114 3.746 3.474-20.496 21.343-36.162 42.806-36.162 19.878 0 36.672 13.418 41.807 31.667 11.649 1.01 22.375 6.633 29.854 15.785 7.339 8.978 10.748 20.279 9.586 31.83-1.042 10.346-5.645 19.77-13.06 26.902l4.375 4.429c8.153 8.24 12.604 19.171 12.528 30.777-.064 11.595-4.645 22.472-12.896 30.626z" fill="#b8ecbc"/></g></g><g><path d="m498.602 195.052c5.271-7.471 8.576-16.237 9.505-25.455 1.428-14.201-2.761-28.108-11.793-39.157-7.795-9.537-18.339-15.942-30.173-18.446-8.255-19.529-27.643-32.678-49.231-32.678-22.408 0-41.88 13.743-49.74 33.899-8.654-1.729-17.839-1.982-26.906-.569-11.241-2.76-23.303-1.742-33.873 2.82-6.972-3.215-14.584-4.896-22.306-4.896-7.157 0-14.338 1.491-20.949 4.333-2.765-.282-5.569-.425-8.373-.425-16.558 0-32.712 5.01-46.354 14.25-6.431-5.464-13.719-9.638-21.766-12.467-1.149-3.553-2.668-6.961-4.546-10.202 1.787-5.382 2.689-10.992 2.689-16.744 0-29.459-23.966-53.425-53.424-53.425h-77.938c-29.458.001-53.424 23.966-53.424 53.425 0 24.306 16.157 45.024 38.811 51.41v89.719c0 25.794 18.058 47.275 42.487 52.303 1.209 7.224 3.894 14.131 7.939 20.332l36.351 55.664-.134 56.118c-.04 14.28 5.483 27.711 15.547 37.815 10.061 10.114 23.492 15.706 37.877 15.746 12.08 0 23.783-4.149 33.168-11.591 13.072 7.605 27.809 11.591 43.075 11.591 18.384 0 36.115-5.85 50.806-16.624 13.491 10.768 30.287 16.624 48.028 16.624h1.314c15.365 0 30.124-4.446 42.593-12.69 10.012 12.654 25.451 20.377 41.934 20.377 29.458 0 53.424-23.966 53.424-53.425 0-7.497-1.587-14.904-4.624-21.711 2.65-5.942 4.208-12.376 4.55-18.882.29-5.516-3.946-10.221-9.462-10.511-5.514-.274-10.221 3.946-10.511 9.462-.278 5.306-1.771 10.318-4.438 14.9-1.808 3.106-1.809 6.943-.004 10.051 2.936 5.057 4.488 10.828 4.488 16.69 0 18.431-14.994 33.425-33.424 33.425-12.901 0-24.785-7.574-30.276-19.298-1.35-2.881-3.99-4.948-7.111-5.567-3.119-.618-6.351.285-8.697 2.435-10.385 9.508-24.036 14.744-38.441 14.744h-1.314c-15.004 0-29.061-5.611-39.568-15.787-.29-.282-.569-.581-.851-.88-3.742-3.962-9.968-4.2-14.002-.531-12.188 11.091-27.96 17.198-44.413 17.198-13.825 0-27.087-4.264-38.352-12.33-4.12-2.95-9.796-2.351-13.212 1.393-6.336 6.95-15.331 10.937-24.684 10.937-8.984-.024-17.398-3.523-23.698-9.856-6.294-6.318-9.747-14.718-9.722-23.652l.142-59.111c.004-1.95-.561-3.859-1.627-5.492l-37.983-58.163c-3.555-5.449-5.43-11.78-5.421-18.309.007-5.38-4.244-9.802-9.621-10.006-18.018-.684-32.132-15.351-32.132-33.389v-97.943c0-5.114-3.859-9.404-8.945-9.944-17.028-1.807-29.867-16.098-29.867-33.242 0-18.431 14.994-33.425 33.424-33.425h77.936c18.43 0 33.424 14.994 33.424 33.425 0 4.789-.999 9.417-2.969 13.756-1.491 3.282-1.099 7.113 1.025 10.026 2.864 3.929 4.796 8.318 5.743 13.049.749 3.748 3.57 6.741 7.268 7.712 8.788 2.306 16.426 6.67 22.66 12.931.578.587 1.145 1.203 1.694 1.809 3.63 4.003 9.783 4.399 13.895.893 11.359-9.681 25.799-15.013 40.661-15.013 2.901 0 5.796.2 8.604.597 2.014.282 4.069-.055 5.888-.968 4.602-2.314 9.73-3.537 14.831-3.537 6.001 0 11.894 1.625 17.044 4.698 3.083 1.84 6.916 1.886 10.043.12 7.739-4.371 17.204-5.45 25.795-2.923 1.514.445 3.111.526 4.661.235 3.438-.644 6.924-.97 10.362-.97 6.552 0 12.863 1.064 18.759 3.165 2.782.992 5.864.701 8.414-.794 2.549-1.495 4.307-4.041 4.801-6.955 2.733-16.127 16.589-27.832 32.946-27.832 14.909 0 28.143 10.023 32.181 24.376 1.127 4.005 4.616 6.894 8.763 7.254 9.053.784 17.212 5.1 22.976 12.151 5.651 6.913 8.272 15.614 7.379 24.498-.806 7.994-4.278 15.151-10.044 20.697-1.928 1.855-3.032 4.404-3.066 7.079-.034 2.676 1.005 5.253 2.885 7.155l4.382 4.436c6.272 6.34 9.694 14.748 9.636 23.686-.05 8.924-3.575 17.294-9.933 23.574-1.52 1.505-3.209 2.884-5.021 4.097-3.261 2.184-4.942 6.072-4.301 9.944.314 1.893.473 23.304.473 23.304 0 5.522 4.478 10 10 10s10-4.478 10-10v-17.698c0-.892-.023-1.789-.069-2.691 1.032-.877 2.027-1.79 2.982-2.734 10.152-10.031 15.788-23.413 15.869-37.673.085-13.291-4.653-25.866-13.399-35.717z"/><circle cx="483.22" cy="336.567" r="10"/><path d="m178.848 424.999h.025c5.511 0 9.986-4.461 10-9.976l.169-69.135 43.098-66.206c3.013-4.629 1.703-10.824-2.925-13.837-4.627-3.013-10.824-1.702-13.837 2.925l-36.341 55.827-36.694-56.196c-3.02-4.625-9.217-5.926-13.84-2.905-4.625 3.02-5.925 9.216-2.906 13.84l43.445 66.537-.169 69.102c-.014 5.522 4.452 10.01 9.975 10.024z"/><path d="m353.958 424.999h1.314c18.369 0 32.758-13.933 32.758-31.72v-44.503c0-5.522-4.478-10-10-10s-10 4.478-10 10v44.503c0 6.791-5.365 11.72-12.758 11.72h-1.314c-7.393 0-12.758-4.929-12.758-11.72v-44.503c0-5.522-4.478-10-10-10s-10 4.478-10 10v44.503c0 17.787 14.389 31.72 32.758 31.72z"/><path d="m255.124 424.999c23.518 0 42.652-19.134 42.652-42.651 0-23.519-19.134-42.652-42.652-42.652s-42.651 19.134-42.651 42.652c0 23.517 19.133 42.651 42.651 42.651zm0-65.304c12.491 0 22.652 10.162 22.652 22.652s-10.161 22.651-22.652 22.651c-12.49 0-22.651-10.161-22.651-22.651s10.161-22.652 22.651-22.652z"/><path d="m92.231 240.444c5.523 0 10-4.477 10-10v-131.129h29.127c5.523 0 10-4.478 10-10s-4.477-10-10-10h-77.939c-5.523 0-10 4.478-10 10s4.477 10 10 10h28.812v131.129c0 5.523 4.478 10 10 10z"/><path d="m363.452 197.482v32.649c0 5.523 4.478 10 10 10 5.523 0 10-4.477 10-10v-32.514c.4-15.277-2.981-26.709-10.054-33.979-5.398-5.549-12.802-8.482-21.412-8.482-5.479 0-10.97 1.377-15.912 4.22-1.75-2.905-4.925-4.854-8.563-4.854-5.522 0-10 4.477-10 10v65.923c0 5.523 4.478 10 10 10 5.523 0 10-4.477 10-10v-31.817c0-14.258 5.682-23.471 14.475-23.471 4.226 0 6.062 1.386 7.076 2.428 3.095 3.183 4.655 10.151 4.394 19.622-.003.091-.004.184-.004.275z"/><path d="m458.58 240.444c2.539 0 5.08-.961 7.028-2.887 3.929-3.882 3.967-10.214.085-14.142l-30.086-30.447 25.668-20.978c4.276-3.495 4.91-9.795 1.415-14.071-3.494-4.276-9.795-4.909-14.071-1.415l-21.71 17.742v-41.508c0-5.522-4.478-10-10-10-5.523 0-10 4.478-10 10v97.422c0 5.522 4.477 10 10 10 5.522 0 10-4.478 10-10v-17.54l24.558 24.853c1.956 1.98 4.534 2.971 7.113 2.971z"/><path d="m135.813 122.739c-5.523 0-10 4.478-10 10v97.705c0 5.523 4.477 10 10 10s10-4.477 10-10v-33.538c0-12.683 6.021-21.541 14.642-21.541 4.686 0 6.411 1.191 7.301 2.085 1.574 1.582 4.205 6.207 4.136 19.493l.123 33.538c.021 5.51 4.494 9.963 9.999 9.963h.038c5.523-.02 9.984-4.514 9.963-10.037l-.123-33.449c.083-16.02-3.081-26.7-9.957-33.613-5.268-5.295-12.495-7.98-21.48-7.98-5.327 0-10.26 1.241-14.642 3.498v-26.124c0-5.522-4.477-10-10-10z"/><path d="m254.764 236.546c7.041 0 13.651-1.87 19.374-5.124.492 5.064 4.758 9.022 9.951 9.022 5.523 0 10-4.477 10-10v-66.445c0-5.522-4.477-10-10-10-5.193 0-9.459 3.959-9.951 9.023-5.723-3.254-12.332-5.124-19.374-5.124-21.683 0-39.324 17.641-39.324 39.324s17.641 39.324 39.324 39.324zm0-58.648c10.655 0 19.324 8.669 19.324 19.324s-8.669 19.324-19.324 19.324-19.324-8.669-19.324-19.324 8.668-19.324 19.324-19.324z"/><path d="m439.795 433.546c5.996 0 10.856-4.86 10.856-10.856s-4.861-10.856-10.856-10.856c-5.996 0-10.856 4.86-10.856 10.856s4.861 10.856 10.856 10.856z"/><path d="m439.795 389.266c5.523 0 10-4.478 10-10v-105.397c0-5.522-4.477-10-10-10-5.522 0-10 4.478-10 10v105.396c0 5.523 4.477 10.001 10 10.001z"/></g></g></svg>